<?xml version="1.0" encoding="UTF-8" standalone="no"?>
<svg
   viewBox="23.011598587036133 176.38101196289062 76.86479759216309 79.23809814453125"
   width="76.86479759216309"
   height="79.23809814453125"
   version="1.1"
   id="svg155"
   sodipodi:docname="CarpentriesAdminLogo.svg"
   xml:space="preserve"
   inkscape:version="1.2 (1:1.2+202205241504+da316b6974)"
   inkscape:export-filename="CarpentriesAdminLogo.png"
   inkscape:export-xdpi="79.932556"
   inkscape:export-ydpi="79.932556"
   xmlns:inkscape="http://www.inkscape.org/namespaces/inkscape"
   xmlns:sodipodi="http://sodipodi.sourceforge.net/DTD/sodipodi-0.dtd"
   xmlns="http://www.w3.org/2000/svg"
   xmlns:svg="http://www.w3.org/2000/svg"><defs
     id="defs159" /><sodipodi:namedview
     id="namedview157"
     pagecolor="#ffffff"
     bordercolor="#666666"
     borderopacity="1.0"
     inkscape:showpageshadow="2"
     inkscape:pageopacity="0.0"
     inkscape:pagecheckerboard="0"
     inkscape:deskcolor="#d1d1d1"
     showgrid="false"
     inkscape:zoom="3.7385624"
     inkscape:cx="-10.164335"
     inkscape:cy="51.891604"
     inkscape:window-width="1380"
     inkscape:window-height="480"
     inkscape:window-x="4043"
     inkscape:window-y="155"
     inkscape:window-maximized="0"
     inkscape:current-layer="svg155" /><path
     id="path2"
     style="fill:#071159;fill-rule:evenodd"
     d="m 60.4089,220.1395 -0.609,-15.6219 13.481,-8.4941 13.6126,7.2951 0.692,16.0431 -13.481,8.4935 z"
     transform="matrix(1, 0, 0, 1, 3.552713678800501e-15, 0)" /><path
     id="path4"
     style="fill:#071159;fill-rule:evenodd"
     d="m 33.6628,217.112 -0.0823,-22.4502 29.2906,-18.2808 14.0091,8.3629 c -10.1028,6.5645 -14.7455,9.3309 -24.9875,15.6991 l -0.1926,5.9751 z"
     transform="matrix(1, 0, 0, 1, 3.552713678800501e-15, 0)" /><path
     id="path6"
     style="fill:#071159;fill-rule:evenodd"
     d="m 35.0548,248.4071 -12.0432,-19.0814 28.7863,-16.8447 1.1557,12.3346 10.7928,5.589 z"
     transform="matrix(1, 0, 0, 1, 3.552713678800501e-15, 0)" /><path
     id="path8"
     style="fill:#071159;fill-rule:evenodd"
     d="m 50.128,245.2642 19.919,10.3549 29.8294,-18.2487 -1.8935,-15.6419 c -10.3375,6.1835 -14.3477,8.7856 -24.6876,14.9664 l -5.3995,-2.5663 z"
     transform="matrix(1, 0, 0, 1, 3.552713678800501e-15, 0)" /><path
     d="m 79.560255,203.20633 c 0.579926,0.38918 1.110882,0.82993 1.590285,1.31448 l 1.804215,-1.01292 c 0.855712,0.69591 1.443369,1.51553 1.765549,2.46145 l -1.585128,1.34286 c 0.14948,0.29899 0.280941,0.60568 0.399505,0.92013 0.126282,0.32993 0.231962,0.66757 0.324759,1.01037 l 2.069689,0.0257 c 0.391771,1.03098 0.492291,2.03617 0.298983,3.0156 l -2.038762,0.37116 c -0.0464,0.68045 -0.159794,1.36089 -0.342798,2.0336 l 1.778437,1.05675 c -0.175276,1.08511 -0.590237,2.00525 -1.250062,2.75787 l -1.951128,-0.69849 c -0.389193,0.57992 -0.827359,1.11087 -1.31192,1.59288 l 1.012936,1.80163 c -0.693332,0.8557 -1.518113,1.44337 -2.461462,1.76554 l -1.34285,-1.58255 c -0.30156,0.14703 -0.605698,0.28093 -0.920147,0.39692 -0.33249,0.12626 -0.667557,0.23199 -1.010359,0.32219 l -0.02577,2.07228 c -1.028402,0.39175 -2.033608,0.48969 -3.015614,0.29895 L 72.97746,222.434 c -0.677868,-0.0465 -1.360892,-0.15977 -2.036184,-0.34281 l -1.054175,1.77843 c -1.087682,-0.17534 -2.007832,-0.59281 -2.760446,-1.25005 l 0.698488,-1.95115 c -0.579925,-0.38661 -1.110878,-0.82733 -1.590284,-1.31191 l -1.804213,1.01553 c -0.853135,-0.69591 -1.443373,-1.51813 -1.765551,-2.46404 l 1.582554,-1.34027 c -0.146909,-0.29899 -0.278366,-0.60829 -0.396928,-0.9176 -0.126282,-0.33246 -0.234535,-0.6701 -0.324757,-1.01035 l -2.069694,-0.0283 c -0.391768,-1.02842 -0.492287,-2.03363 -0.298986,-3.01304 l 2.038765,-0.37115 c 0.0464,-0.67789 0.159794,-1.35831 0.3428,-2.03363 l -1.778436,-1.05675 c 0.175276,-1.08767 0.592815,-2.00525 1.250065,-2.76044 l 1.951121,0.6985 c 0.389196,-0.57994 0.829939,-1.11088 1.311921,-1.59029 l -1.012935,-1.8042 c 0.69591,-0.85314 1.515537,-1.44337 2.46146,-1.76556 l 1.342851,1.58256 c 0.30156,-0.14702 0.605698,-0.27838 0.920148,-0.39692 0.329915,-0.12627 0.667559,-0.23199 1.010358,-0.32478 l 0.02577,-2.06969 c 1.028402,-0.39178 2.033605,-0.49228 3.013035,-0.29898 l 0.371152,2.03876 c 0.680446,0.0465 1.360892,0.15977 2.033607,0.34282 l 1.056755,-1.77847 c 1.085103,0.17535 2.005251,0.59283 2.760444,1.25009 z m 0.636632,6.2838 c -0.626321,-1.66504 -1.889269,-3.09035 -3.636778,-3.88163 -1.750087,-0.79127 -3.652243,-0.79902 -5.317276,-0.17275 -1.662453,0.62634 -3.087779,1.88928 -3.879055,3.63678 -0.791278,1.74752 -0.799009,3.64967 -0.17268,5.31728 0.62632,1.66246 1.886691,3.08779 3.636778,3.87907 1.747509,0.79385 3.649663,0.79899 5.314695,0.17275 1.66503,-0.62374 3.09036,-1.88669 3.879059,-3.63678 0.793852,-1.74752 0.801585,-3.65223 0.175276,-5.31469 z"
     id="path387"
     style="fill:#ffffff;stroke-width:0.0257745" /></svg>
